<?xml version="1.0" encoding="UTF-8" standalone="no"?>
<!DOCTYPE svg PUBLIC "-//W3C//DTD SVG 1.1//EN" "http://www.w3.org/Graphics/SVG/1.1/DTD/svg11.dtd">
<svg width="100%" height="100%" viewBox="0 0 604 132" version="1.1" xmlns="http://www.w3.org/2000/svg" xmlns:xlink="http://www.w3.org/1999/xlink" xml:space="preserve" xmlns:serif="http://www.serif.com/" style="fill-rule:evenodd;clip-rule:evenodd;stroke-linejoin:round;stroke-miterlimit:1.41421;">
    <g id="Artboard1" transform="matrix(0.93361,0,0,0.748806,-123.885,-177.563)">
        <rect x="132.694" y="237.129" width="646.731" height="175.745" style="fill:none;"/>
        <g transform="matrix(1.07111,0,0,1.33546,-29.3573,-104.057)">
            <path d="M170.17,372.358L177.658,372.358L188.89,341.686L230.218,341.686L241.594,372.358L249.802,372.358L213.946,275.734L206.314,275.734L170.17,372.358ZM209.626,285.958L227.77,334.918L191.338,334.918L209.626,285.958Z" style="fill-rule:nonzero;"/>
            <path d="M282.922,372.358L290.266,372.358L325.69,275.734L318.346,275.734L286.954,361.558L286.81,361.558L255.418,275.734L247.498,275.734L282.922,372.358Z" style="fill-rule:nonzero;"/>
            <path d="M323.242,372.358L330.73,372.358L341.962,341.686L383.29,341.686L394.666,372.358L402.874,372.358L367.018,275.734L359.386,275.734L323.242,372.358ZM362.698,285.958L380.842,334.918L344.41,334.918L362.698,285.958Z" style="fill-rule:nonzero;"/>
            <path d="M417.85,372.358L425.626,372.358L425.626,329.446L447.226,329.446L473.146,372.358L482.074,372.358L455.002,328.006L455.002,327.574C469.114,324.262 475.594,315.766 475.594,302.086C475.594,286.102 466.09,275.734 444.778,275.734L417.85,275.734L417.85,372.358ZM425.626,322.966L425.626,282.358L444.346,282.358C461.05,282.358 467.386,289.846 467.386,302.086C467.386,314.614 461.77,322.966 444.49,322.966L425.626,322.966Z" style="fill-rule:nonzero;"/>
            <path d="M534.49,373.798C560.122,373.798 576.106,355.798 576.106,325.126L576.106,322.966C576.106,291.43 560.122,274.294 534.778,274.294C508.858,274.294 492.874,292.006 492.874,322.966L492.874,325.126C492.874,356.662 508.858,373.798 534.49,373.798ZM534.634,367.174C512.17,367.174 501.226,351.19 501.226,324.982L501.226,321.526C501.226,296.47 513.178,280.918 534.346,280.918C556.81,281.062 567.754,296.758 567.754,322.966L567.754,326.278C567.754,351.478 556.09,367.174 534.634,367.174Z" style="fill-rule:nonzero;"/>
            <path d="M615.706,373.942C637.882,373.942 647.242,363.142 647.242,346.87C647.242,330.742 638.026,324.982 623.338,320.086L615.562,317.494C602.17,313.174 597.85,308.566 597.85,297.766C597.85,287.83 604.762,281.062 618.73,281.062C629.098,281.062 637.162,283.654 642.49,286.534L642.49,279.622C637.306,277.03 630.106,274.294 619.018,274.294C599.722,274.294 589.93,284.662 589.93,298.342C589.93,312.886 597.418,319.51 612.538,324.55L620.314,327.286C632.698,331.318 639.466,335.638 639.466,347.446C639.466,359.542 632.122,367.03 615.274,367.03C605.05,367.03 595.402,364.438 588.346,360.55L588.346,367.174C594.538,370.774 604.186,373.942 615.706,373.942Z" style="fill-rule:nonzero;"/>
            <path d="M657.178,372.358L664.666,372.358L675.898,341.686L717.226,341.686L728.602,372.358L736.81,372.358L700.954,275.734L693.322,275.734L657.178,372.358ZM696.634,285.958L714.778,334.918L678.346,334.918L696.634,285.958Z" style="fill-rule:nonzero;"/>
        </g>
    </g>
</svg>
