<?xml version="1.0" encoding="UTF-8" standalone="no"?>
<!DOCTYPE svg PUBLIC "-//W3C//DTD SVG 1.1//EN" "http://www.w3.org/Graphics/SVG/1.1/DTD/svg11.dtd">
<svg width="100%" height="100%" viewBox="0 0 1280 800" version="1.1" xmlns="http://www.w3.org/2000/svg" xmlns:xlink="http://www.w3.org/1999/xlink" xml:space="preserve" style="fill-rule:evenodd;clip-rule:evenodd;stroke-linejoin:round;stroke-miterlimit:1.41421;">
    <path d="M308.922,310.95L318.922,310.95L318.922,407.647L318.931,407.647C319.276,419.977 329.393,429.88 341.805,429.88L433.4,429.88C446.029,429.88 456.282,419.626 456.282,406.997L456.282,322.317L456.282,319.854L456.282,310.95L466.282,310.95L466.282,407.647C466.282,425.437 451.84,439.88 434.05,439.88L341.155,439.88C323.365,439.88 308.922,425.437 308.922,407.647L308.922,310.95Z"/>
    <path d="M198.315,439.88L105.42,439.88C96.788,439.88 88.944,436.479 83.187,430.939L83.187,407.647L83.196,407.647C83.592,420.026 93.689,429.88 106.07,429.88L197.665,429.88C210.294,429.88 220.548,419.626 220.548,406.997L220.548,343.183L220.548,430.939C214.811,436.461 207,439.857 198.315,439.88ZM83.187,319.891L83.187,430.939C77.035,425.095 73.213,416.86 73.187,407.647L73.187,343.183C73.187,334.025 77.014,325.754 83.187,319.891ZM220.548,319.891C226.7,325.735 230.522,333.97 230.548,343.183L230.548,407.647C230.548,416.805 226.721,425.076 220.548,430.939L220.548,343.183L220.548,322.317L220.548,319.891ZM106.07,320.95C93.389,321.002 83.187,331.235 83.187,343.833L83.187,407.647L83.187,319.891C88.944,314.351 96.788,310.95 105.42,310.95L198.315,310.95C206.947,310.95 214.791,314.351 220.548,319.891L220.548,343.183L220.539,343.183C220.195,330.884 210.127,321 197.665,320.95L106.07,320.95Z"/>
    <g transform="matrix(1,0,0,1,706.971,5.68434e-14)">
        <path d="M198.315,439.88L105.42,439.88C96.788,439.88 88.944,436.479 83.187,430.939L83.187,407.647L83.196,407.647C83.592,420.026 93.689,429.88 106.07,429.88L197.665,429.88C210.294,429.88 220.548,419.626 220.548,406.997L220.548,343.183L220.548,430.939C214.811,436.461 207,439.857 198.315,439.88ZM83.187,319.891L83.187,430.939C77.035,425.095 73.213,416.86 73.187,407.647L73.187,343.183C73.187,334.025 77.014,325.754 83.187,319.891ZM220.548,319.891C226.7,325.735 230.522,333.97 230.548,343.183L230.548,407.647C230.548,416.805 226.721,425.076 220.548,430.939L220.548,343.183L220.548,322.317L220.548,319.891ZM106.07,320.95C93.389,321.002 83.187,331.235 83.187,343.833L83.187,407.647L83.187,319.891C88.944,314.351 96.788,310.95 105.42,310.95L198.315,310.95C206.947,310.95 214.791,314.351 220.548,319.891L220.548,343.183L220.539,343.183C220.195,330.884 210.127,321 197.665,320.95L106.07,320.95Z"/>
    </g>
    <g transform="matrix(1,0,0,1,-0.548957,2.84217e-13)">
        <path d="M545.206,310.95L650.896,310.95L650.896,320.95L555.206,320.95L555.206,439.88L545.206,439.88L545.206,310.95ZM647.422,370.033L686.365,408.976C684.756,410.878 684.016,413.4 684.397,415.94C684.028,413.408 684.768,410.884 686.365,408.999L717.208,439.842C712.537,439.774 707.956,438.779 703.751,436.943C699.966,435.345 696.483,433.08 693.46,430.236L692.067,428.843C691.909,428.681 691.753,428.518 691.599,428.352L633.279,370.033L633.196,370.033C627.378,364.375 619.774,360.883 611.743,360.117L611.743,359.957L658.013,359.957L658.013,360.033L670.334,360.033L670.334,360.024C681.546,359.71 690.751,351.315 692.3,340.458L692.309,340.407L692.311,340.394L692.313,340.382L692.317,340.358L692.321,340.333L692.324,340.319L692.326,340.306L692.329,340.283L692.333,340.258L692.336,340.244L692.338,340.23L692.341,340.208L692.345,340.184L692.347,340.169L692.35,340.154L692.353,340.132L692.356,340.109L692.359,340.093L692.361,340.078L692.364,340.057L692.367,340.035L692.37,340.018L692.372,340.002L692.375,339.981L692.378,339.96L692.381,339.942L692.383,339.925L692.386,339.906L692.388,339.885L692.391,339.867L692.393,339.849L692.396,339.83L692.399,339.811L692.401,339.791L692.404,339.772L692.406,339.754L692.408,339.736L692.411,339.715L692.413,339.696L692.415,339.679L692.418,339.661L692.42,339.639L692.423,339.619L692.425,339.603L692.427,339.585L692.43,339.563L692.432,339.542L692.434,339.527L692.436,339.51L692.438,339.487L692.441,339.465L692.443,339.45L692.444,339.435L692.447,339.411L692.449,339.388L692.451,339.374L692.453,339.36L692.455,339.335L692.458,339.311L692.459,339.298L692.46,339.284L692.463,339.258L692.466,339.234L692.467,339.222L692.468,339.209L692.471,339.182L692.473,339.157L692.474,339.145L692.475,339.133L692.478,339.105L692.48,339.08L692.481,339.069L692.482,339.057L692.485,339.029L692.487,339.003L692.488,338.992L692.489,338.982L692.492,338.952L692.494,338.925L692.495,338.916L692.496,338.906L692.498,338.875L692.5,338.848L692.501,338.839L692.502,338.83L692.504,338.798L692.506,338.77L692.507,338.762L692.508,338.754L692.51,338.721L692.512,338.692L692.513,338.685L692.513,338.678L692.516,338.644L692.518,338.615L692.518,338.608L692.518,338.602L692.521,338.567L692.523,338.537L692.523,338.531L692.523,338.525L692.526,338.49L692.528,338.459L692.528,338.454L692.528,338.449L692.53,338.412L692.532,338.381L692.532,338.377L692.533,338.373L692.535,338.334L692.536,338.303L692.537,338.3L692.537,338.296L692.539,338.256L692.54,338.225L692.54,338.222L692.541,338.22L692.543,338.176L692.544,338.147L692.544,338.145L692.544,338.143L692.546,338.094L692.547,338.068L692.547,338.067L692.548,338.067L692.551,337.99L692.547,338.067L692.546,338.094L692.544,338.145L692.543,338.176L692.54,338.222L692.539,338.256L692.537,338.3L692.535,338.334L692.532,338.377L692.53,338.412L692.528,338.454L692.526,338.49L692.523,338.531L692.521,338.567L692.518,338.608L692.516,338.644L692.513,338.685L692.51,338.721L692.507,338.762L692.504,338.798L692.501,338.839L692.498,338.875L692.495,338.916L692.492,338.952L692.488,338.992L692.485,339.029L692.481,339.069L692.478,339.105L692.474,339.145L692.471,339.182L692.467,339.222L692.463,339.258L692.459,339.298L692.455,339.335L692.451,339.374L692.447,339.411L692.443,339.45L692.438,339.487L692.434,339.527L692.43,339.563L692.425,339.603L692.42,339.639L692.415,339.679L692.411,339.715L692.406,339.754L692.401,339.791L692.396,339.83L692.391,339.867L692.386,339.906L692.381,339.942L692.375,339.981L692.37,340.018L692.364,340.057L692.359,340.093L692.353,340.132L692.347,340.169L692.341,340.208L692.336,340.244L692.329,340.283L692.324,340.319L692.317,340.358L692.311,340.394L692.3,340.458C690.698,329.438 681.174,320.95 669.683,320.95L650.896,320.95L650.896,310.95L670.334,310.95C678.966,310.95 686.81,314.351 692.566,319.891L692.566,337.15L692.566,337.236L692.566,337.264L692.565,337.323L692.565,337.356L692.565,337.41L692.564,337.443L692.563,337.497L692.563,337.53L692.562,337.588L692.561,337.616L692.559,337.702L692.559,337.702L692.559,337.702L692.557,337.787L692.554,337.885C692.555,337.853 692.556,337.82 692.557,337.787L692.557,337.781L692.559,337.702L692.559,337.702L692.559,337.702L692.561,337.623L692.561,337.616L692.562,337.61L692.562,337.588L692.563,337.545L692.563,337.53L692.563,337.519L692.563,337.497L692.564,337.466L692.564,337.443L692.564,337.427L692.565,337.41L692.565,337.387L692.565,337.356L692.565,337.335L692.565,337.323L692.566,337.308L692.566,337.264L692.566,337.242L692.566,337.236C692.566,337.208 692.566,337.179 692.566,337.15L692.566,319.891C698.128,325.174 701.786,332.412 702.43,340.492C701.775,348.549 698.145,355.769 692.631,361.03L692.566,361.092C686.829,366.614 679.018,370.01 670.334,370.033L647.422,370.033ZM733.418,439.842L717.208,439.842L706.96,429.594L706.96,429.569C713.947,436.473 723.57,440.216 733.418,439.812L733.418,439.842ZM692.522,342.413L692.525,342.463L692.522,342.413L692.519,342.362L692.522,342.413Z"/>
    </g>
    <g transform="matrix(0.707107,0.707107,0.707107,-0.707107,346.883,124.823)">
        <path d="M669.1,405.853L691.599,428.352C691.753,428.518 691.909,428.681 692.067,428.843L693.46,430.236C696.483,433.08 699.966,435.345 703.751,436.943C707.956,438.779 712.537,439.774 717.208,439.842L686.365,408.999C684.768,410.884 684.028,413.408 684.397,415.94C684.02,413.426 684.741,410.931 686.365,408.976L676.171,398.782L669.1,405.853Z"/>
    </g>
    <g transform="matrix(0.707107,0.707107,0.707107,-0.707107,345.828,125.553)">
        <path d="M692.522,342.413L692.525,342.463L692.522,342.413L692.519,342.362L692.522,342.413Z"/>
    </g>
    <g transform="matrix(-1.25208,-5.08021e-16,-4.05742e-16,1,1876.52,4.51898e-13)">
        <path d="M627.951,320.95L650.896,320.95L650.896,310.95L627.951,310.95L627.951,320.95Z"/>
    </g>
    <g transform="matrix(0.707107,0.707107,0.707107,-0.707107,346.883,124.823)">
        <path d="M717.208,439.842L733.418,439.842L733.418,439.812C723.57,440.216 713.947,436.473 706.96,429.569L706.96,429.594L717.208,439.842Z"/>
    </g>
    <g transform="matrix(1,0,0,1,11.8384,0)">
        <path d="M1004.21,340.458L1004.21,310.95L1049.71,310.95L1049.71,320.95L1014.36,320.95L1014.36,319.616C1014.27,319.707 1014.17,319.799 1014.07,319.891L1014.07,337.15L1014.07,319.891C1008.52,325.167 1004.86,332.391 1004.21,340.458L1004.21,340.458Z"/>
    </g>
    <g transform="matrix(2.22045e-16,1,1,-2.22045e-16,705.23,-234.256)">
        <path d="M573.814,320.95L573.798,320.948L573.766,320.944L573.691,320.936L573.615,320.928L573.54,320.92L573.464,320.912L573.389,320.905L573.313,320.898L573.237,320.891L573.181,320.886L573.103,320.88L573.026,320.874L572.948,320.868L572.87,320.863L572.792,320.857L572.715,320.853L572.637,320.848L572.559,320.844L572.48,320.84L572.402,320.836L572.324,320.833L572.246,320.83L572.323,320.833L572.401,320.836L572.478,320.84L572.555,320.844L572.633,320.848L572.71,320.852L572.787,320.857L572.864,320.862L572.941,320.868L573.018,320.873L573.094,320.879L573.171,320.885L573.248,320.892L573.324,320.899L573.401,320.906L573.477,320.913L573.514,320.917L573.561,320.922L573.63,320.929L573.667,320.933L573.706,320.938L573.743,320.942L573.782,320.946L573.814,320.95Z"/>
    </g>
    <g transform="matrix(0.707107,0.707107,0.707107,-0.707107,345.828,125.553)">
        <path d="M692.566,337.242L692.566,337.264L692.566,337.308L692.565,337.323L692.565,337.335L692.565,337.356L692.565,337.387L692.565,337.41L692.564,337.427L692.564,337.443L692.564,337.466L692.563,337.497L692.563,337.519L692.563,337.53L692.563,337.545L692.562,337.588L692.562,337.61L692.561,337.616L692.561,337.623L692.559,337.702L692.559,337.702L692.559,337.702L692.557,337.781L692.557,337.787L692.559,337.702L692.559,337.702L692.559,337.702L692.561,337.616L692.562,337.588L692.563,337.53L692.563,337.497L692.564,337.443L692.565,337.41L692.565,337.356L692.565,337.323L692.566,337.264L692.566,337.236L692.566,337.242Z"/>
    </g>
    <g transform="matrix(-6.61443e-16,0.565301,-0.432656,-4.30527e-16,1209.96,-255.245)">
        <path d="M1019.27,278.512L1001.58,278.512L1001.58,193.108L1019.27,193.108L1019.27,278.512Z"/>
    </g>
    <g transform="matrix(-0.707107,-0.707107,-0.707107,0.707107,1838.66,626.007)">
        <path d="M669.1,405.853L691.599,428.352C691.753,428.518 691.909,428.681 692.067,428.843L693.46,430.236C696.483,433.08 699.966,435.345 703.751,436.943C707.956,438.779 712.537,439.774 717.208,439.842L686.365,408.999C684.768,410.884 684.028,413.408 684.397,415.94C684.02,413.426 684.741,410.931 686.365,408.976L676.171,398.782L669.1,405.853Z"/>
    </g>
    <g transform="matrix(-0.707107,-0.707107,-0.707107,0.707107,1838.66,626.007)">
        <path d="M717.208,439.842L733.418,439.842L733.418,439.812C723.57,440.216 713.947,436.473 706.96,429.569L706.96,429.594L717.208,439.842Z"/>
    </g>
    <g transform="matrix(7.30319e-16,-0.565301,0.361421,4.04191e-16,990.489,1006.07)">
        <path d="M1019.27,278.512L1001.58,278.512L1001.58,193.108L1019.27,193.108L1019.27,278.512Z"/>
    </g>
    <g transform="matrix(1.58466,0,0,1,-601.04,5.68434e-14)">
        <path d="M1093.04,359.957C1088.93,359.995 1085.5,364.174 1084.27,369.957L1108.88,369.957L1048.49,369.957L1048.49,359.957L1093.04,359.957Z"/>
    </g>
    <g transform="matrix(1,0,0,4.89737,19.2367,-1547.58)">
        <path d="M1163.02,389.502L1153.02,389.502L1163.02,389.502Z"/>
    </g>
    <g transform="matrix(1.58466,0,0,-1,-601.04,799.837)">
        <path d="M1113.56,359.957C1110.94,360.01 1108.88,363.317 1108.88,367.382L1108.88,369.957L1048.49,369.957L1048.49,359.957L1113.56,359.957Z"/>
    </g>
    <rect x="1164.99" y="395.561" width="10" height="11.647"/>
    <g transform="matrix(-0.707107,-0.707107,-0.707107,0.707107,1852.47,604.361)">
        <path d="M692.522,342.413L692.525,342.463L692.522,342.413L692.519,342.362L692.522,342.413Z"/>
    </g>
    <g transform="matrix(-0.707107,-0.707107,-0.707107,0.707107,1852.47,604.361)">
        <path d="M692.566,337.242L692.566,337.264L692.566,337.308L692.565,337.323L692.565,337.335L692.565,337.356L692.565,337.387L692.565,337.41L692.564,337.427L692.564,337.443L692.564,337.466L692.563,337.497L692.563,337.519L692.563,337.53L692.563,337.545L692.562,337.588L692.562,337.61L692.561,337.616L692.561,337.623L692.559,337.702L692.559,337.702L692.559,337.702L692.557,337.781L692.557,337.787L692.559,337.702L692.559,337.702L692.559,337.702L692.561,337.616L692.562,337.588L692.563,337.53L692.563,337.497L692.564,337.443L692.565,337.41L692.565,337.356L692.565,337.323L692.566,337.264L692.566,337.236L692.566,337.242Z"/>
    </g>
    <g transform="matrix(-1,-1.22465e-16,5.99755e-16,-4.89737,2179.07,2277.49)">
        <path d="M1163.02,389.502L1153.02,389.502L1163.02,389.502Z"/>
    </g>
    <g transform="matrix(-1,-1.22465e-16,2.64322e-16,-2.15835,2191.04,1195.52)">
        <rect x="1164.99" y="395.561" width="10" height="11.647"/>
    </g>
    <rect x="1021.53" y="310.95" width="8.654" height="10"/>
    <g transform="matrix(1,0,0,1,5,0)">
        <rect x="1047.32" y="429.88" width="21.919" height="9.984"/>
    </g>
    <path d="M1160.36,359.957L1131.06,359.957L1131.06,359.957L1160.36,359.957L1160.36,359.957Z"/>
    <path d="M1117.17,369.957C1119.1,364.174 1124.55,359.995 1131.06,359.957L1160.36,359.957L1162.13,360.064L1162.3,360.1C1162.13,360.128 1161.97,360.163 1161.81,360.202L1161.85,360.192C1162,360.157 1162.15,360.126 1162.3,360.1C1168.83,360.957 1174.01,366.13 1174.82,372.642L1175,374.605L1175,403.9C1175,406.307 1174.42,408.58 1173.39,410.585L1164.99,410.585L1164.99,374.729C1164.99,372.096 1162.85,369.958 1160.22,369.957L1117.17,369.957ZM1174.69,373.148C1173.8,376.256 1170.94,378.52 1167.56,378.52L1167.61,378.52C1170.97,378.501 1173.8,376.243 1174.69,373.148ZM1174.71,373.109L1174.69,373.147L1174.71,373.109L1174.71,373.109ZM1174.72,373.071L1174.71,373.105L1174.72,373.071L1174.72,373.071ZM1174.73,373.032L1174.72,373.064L1174.73,373.032L1174.73,373.032ZM1174.74,372.994L1174.73,373.023L1174.74,372.994L1174.74,372.994ZM1174.75,372.955L1174.74,372.982L1174.75,372.955L1174.75,372.955ZM1174.76,372.916L1174.75,372.941L1174.76,372.916L1174.76,372.916ZM1174.77,372.877L1174.76,372.9L1174.77,372.877L1174.77,372.877ZM1174.78,372.838L1174.77,372.859L1174.78,372.838L1174.78,372.838ZM1174.79,372.799L1174.78,372.819L1174.79,372.799L1174.79,372.799ZM1174.8,372.76L1174.79,372.778L1174.8,372.76L1174.8,372.76ZM1174.8,372.721L1174.8,372.737L1174.8,372.721L1174.8,372.721ZM1174.81,372.681L1174.81,372.695L1174.81,372.681L1174.81,372.681ZM1156.16,367.17C1156.16,367.204 1156.16,367.239 1156.16,367.274C1156.16,367.225 1156.16,367.176 1156.16,367.128L1156.16,367.17ZM1156.19,366.625C1156.18,366.768 1156.17,366.912 1156.16,367.058C1156.17,366.912 1156.18,366.768 1156.19,366.625ZM1156.3,365.93C1156.29,365.956 1156.29,365.982 1156.28,366.008L1156.29,365.97L1156.3,365.93ZM1156.59,364.872C1156.59,364.889 1156.58,364.907 1156.58,364.924C1156.58,364.907 1156.59,364.889 1156.59,364.872ZM1156.75,364.473C1156.73,364.512 1156.72,364.552 1156.7,364.591C1156.72,364.552 1156.73,364.512 1156.75,364.473ZM1156.97,364.005C1156.93,364.09 1156.89,364.175 1156.85,364.262C1156.89,364.175 1156.93,364.09 1156.97,364.005ZM1157.19,363.609C1157.14,363.696 1157.09,363.784 1157.04,363.873C1157.09,363.784 1157.14,363.696 1157.19,363.609ZM1157.54,363.081C1157.5,363.131 1157.47,363.181 1157.43,363.231C1157.47,363.181 1157.5,363.131 1157.54,363.081ZM1157.77,362.771C1157.73,362.819 1157.7,362.868 1157.66,362.918L1157.68,362.886C1157.71,362.848 1157.74,362.809 1157.77,362.771ZM1157.91,362.609C1157.87,362.649 1157.84,362.69 1157.81,362.731L1157.83,362.7C1157.86,362.67 1157.88,362.639 1157.91,362.609ZM1158.2,362.285C1158.17,362.314 1158.14,362.343 1158.12,362.372L1158.14,362.343C1158.16,362.324 1158.18,362.304 1158.2,362.285ZM1158.34,362.144L1158.31,362.172L1158.34,362.144ZM1158.69,361.82C1158.65,361.854 1158.61,361.89 1158.57,361.925L1158.6,361.899C1158.64,361.863 1158.68,361.828 1158.72,361.794L1158.69,361.82ZM1158.99,361.567C1158.93,361.614 1158.87,361.661 1158.82,361.71C1158.86,361.67 1158.91,361.63 1158.96,361.591L1158.99,361.567ZM1159.18,361.423C1159.17,361.433 1159.16,361.443 1159.14,361.453L1159.15,361.446L1159.18,361.423ZM1159.35,361.307L1159.31,361.33L1159.35,361.307L1159.36,361.301L1159.35,361.307ZM1159.68,361.089C1159.65,361.11 1159.61,361.13 1159.58,361.151C1159.61,361.13 1159.65,361.11 1159.68,361.089ZM1160.39,360.707C1160.24,360.776 1160.1,360.849 1159.96,360.927L1159.99,360.908C1160.13,360.831 1160.28,360.758 1160.42,360.689L1160.39,360.707ZM1160.76,360.543C1160.67,360.578 1160.59,360.613 1160.51,360.651C1160.59,360.613 1160.67,360.578 1160.76,360.543ZM1161.02,360.441L1160.98,360.455C1161,360.448 1161.02,360.441 1161.04,360.434L1161.02,360.441ZM1161.37,360.323C1161.29,360.347 1161.21,360.373 1161.14,360.4L1161.18,360.386C1161.23,360.369 1161.28,360.352 1161.33,360.335L1161.37,360.323ZM1161.61,360.254C1161.58,360.262 1161.55,360.27 1161.52,360.278C1161.55,360.27 1161.58,360.262 1161.61,360.254ZM1156.32,365.809C1156.32,365.809 1156.32,365.809 1156.32,365.809ZM1157.23,363.541C1157.28,363.461 1157.33,363.383 1157.38,363.306C1157.32,363.394 1157.27,363.484 1157.21,363.575L1157.23,363.541ZM1157.96,362.549L1157.93,362.579L1157.96,362.549ZM1158.42,362.061C1158.4,362.079 1158.38,362.097 1158.37,362.116L1158.39,362.088L1158.42,362.061ZM1159.27,361.361C1159.25,361.374 1159.23,361.386 1159.21,361.399L1159.25,361.376L1159.27,361.361ZM1161.69,360.233C1161.67,360.236 1161.66,360.24 1161.65,360.243L1161.69,360.233C1161.7,360.229 1161.71,360.226 1161.73,360.222L1161.69,360.233Z"/>
    <g transform="matrix(-1,-1.22465e-16,1.22465e-16,-1,2191.05,729.914)">
        <path d="M1117.17,369.957C1119.1,364.174 1124.55,359.995 1131.06,359.957L1160.36,359.957L1162.13,360.064L1162.3,360.1C1162.13,360.128 1161.97,360.163 1161.81,360.202L1161.85,360.192C1162,360.157 1162.15,360.126 1162.3,360.1C1168.83,360.957 1174.01,366.13 1174.82,372.642L1175,374.605L1175,403.9C1175,406.307 1174.42,408.58 1173.39,410.585L1164.99,410.585L1164.99,374.729C1164.99,372.096 1162.85,369.958 1160.22,369.957L1117.17,369.957ZM1174.69,373.148C1173.8,376.256 1170.94,378.52 1167.56,378.52L1167.61,378.52C1170.97,378.501 1173.8,376.243 1174.69,373.148ZM1174.71,373.109L1174.69,373.147L1174.71,373.109L1174.71,373.109ZM1174.72,373.071L1174.71,373.105L1174.72,373.071L1174.72,373.071ZM1174.73,373.032L1174.72,373.064L1174.73,373.032L1174.73,373.032ZM1174.74,372.994L1174.73,373.023L1174.74,372.994L1174.74,372.994ZM1174.75,372.955L1174.74,372.982L1174.75,372.955L1174.75,372.955ZM1174.76,372.916L1174.75,372.941L1174.76,372.916L1174.76,372.916ZM1174.77,372.877L1174.76,372.9L1174.77,372.877L1174.77,372.877ZM1174.78,372.838L1174.77,372.859L1174.78,372.838L1174.78,372.838ZM1174.79,372.799L1174.78,372.819L1174.79,372.799L1174.79,372.799ZM1174.8,372.76L1174.79,372.778L1174.8,372.76L1174.8,372.76ZM1174.8,372.721L1174.8,372.737L1174.8,372.721L1174.8,372.721ZM1174.81,372.681L1174.81,372.695L1174.81,372.681L1174.81,372.681ZM1156.16,367.17C1156.16,367.204 1156.16,367.239 1156.16,367.274C1156.16,367.225 1156.16,367.176 1156.16,367.128L1156.16,367.17ZM1156.19,366.625C1156.18,366.768 1156.17,366.912 1156.16,367.058C1156.17,366.912 1156.18,366.768 1156.19,366.625ZM1156.3,365.93C1156.29,365.956 1156.29,365.982 1156.28,366.008L1156.29,365.97L1156.3,365.93ZM1156.59,364.872C1156.59,364.889 1156.58,364.907 1156.58,364.924C1156.58,364.907 1156.59,364.889 1156.59,364.872ZM1156.75,364.473C1156.73,364.512 1156.72,364.552 1156.7,364.591C1156.72,364.552 1156.73,364.512 1156.75,364.473ZM1156.97,364.005C1156.93,364.09 1156.89,364.175 1156.85,364.262C1156.89,364.175 1156.93,364.09 1156.97,364.005ZM1157.19,363.609C1157.14,363.696 1157.09,363.784 1157.04,363.873C1157.09,363.784 1157.14,363.696 1157.19,363.609ZM1157.54,363.081C1157.5,363.131 1157.47,363.181 1157.43,363.231C1157.47,363.181 1157.5,363.131 1157.54,363.081ZM1157.77,362.771C1157.73,362.819 1157.7,362.868 1157.66,362.918L1157.68,362.886C1157.71,362.848 1157.74,362.809 1157.77,362.771ZM1157.91,362.609C1157.87,362.649 1157.84,362.69 1157.81,362.731L1157.83,362.7C1157.86,362.67 1157.88,362.639 1157.91,362.609ZM1158.2,362.285C1158.17,362.314 1158.14,362.343 1158.12,362.372L1158.14,362.343C1158.16,362.324 1158.18,362.304 1158.2,362.285ZM1158.34,362.144L1158.31,362.172L1158.34,362.144ZM1158.69,361.82C1158.65,361.854 1158.61,361.89 1158.57,361.925L1158.6,361.899C1158.64,361.863 1158.68,361.828 1158.72,361.794L1158.69,361.82ZM1158.99,361.567C1158.93,361.614 1158.87,361.661 1158.82,361.71C1158.86,361.67 1158.91,361.63 1158.96,361.591L1158.99,361.567ZM1159.18,361.423C1159.17,361.433 1159.16,361.443 1159.14,361.453L1159.15,361.446L1159.18,361.423ZM1159.35,361.307L1159.31,361.33L1159.35,361.307L1159.36,361.301L1159.35,361.307ZM1159.68,361.089C1159.65,361.11 1159.61,361.13 1159.58,361.151C1159.61,361.13 1159.65,361.11 1159.68,361.089ZM1160.39,360.707C1160.24,360.776 1160.1,360.849 1159.96,360.927L1159.99,360.908C1160.13,360.831 1160.28,360.758 1160.42,360.689L1160.39,360.707ZM1160.76,360.543C1160.67,360.578 1160.59,360.613 1160.51,360.651C1160.59,360.613 1160.67,360.578 1160.76,360.543ZM1161.02,360.441L1160.98,360.455C1161,360.448 1161.02,360.441 1161.04,360.434L1161.02,360.441ZM1161.37,360.323C1161.29,360.347 1161.21,360.373 1161.14,360.4L1161.18,360.386C1161.23,360.369 1161.28,360.352 1161.33,360.335L1161.37,360.323ZM1161.61,360.254C1161.58,360.262 1161.55,360.27 1161.52,360.278C1161.55,360.27 1161.58,360.262 1161.61,360.254ZM1156.32,365.809C1156.32,365.809 1156.32,365.809 1156.32,365.809ZM1157.23,363.541C1157.28,363.461 1157.33,363.383 1157.38,363.306C1157.32,363.394 1157.27,363.484 1157.21,363.575L1157.23,363.541ZM1157.96,362.549L1157.93,362.579L1157.96,362.549ZM1158.42,362.061C1158.4,362.079 1158.38,362.097 1158.37,362.116L1158.39,362.088L1158.42,362.061ZM1159.27,361.361C1159.25,361.374 1159.23,361.386 1159.21,361.399L1159.25,361.376L1159.27,361.361ZM1161.69,360.233C1161.67,360.236 1161.66,360.24 1161.65,360.243L1161.69,360.233C1161.7,360.229 1161.71,360.226 1161.73,360.222L1161.69,360.233Z"/>
    </g>
    <g transform="matrix(1,0,0,-1,0,799.837)">
        <path d="M1117.17,369.957C1119.1,364.174 1124.55,359.995 1131.06,359.957L1160.36,359.957L1162.13,360.064L1162.3,360.1C1162.13,360.128 1161.97,360.163 1161.81,360.202L1161.85,360.192C1162,360.157 1162.15,360.126 1162.3,360.1C1168.83,360.957 1174.01,366.13 1174.82,372.642L1175,374.605L1175,403.9C1175,406.307 1174.42,408.58 1173.39,410.585L1164.99,410.585L1164.99,374.729C1164.99,372.096 1162.85,369.958 1160.22,369.957L1117.17,369.957ZM1174.69,373.148C1173.8,376.256 1170.94,378.52 1167.56,378.52L1167.61,378.52C1170.97,378.501 1173.8,376.243 1174.69,373.148ZM1174.71,373.109L1174.69,373.147L1174.71,373.109L1174.71,373.109ZM1174.72,373.071L1174.71,373.105L1174.72,373.071L1174.72,373.071ZM1174.73,373.032L1174.72,373.064L1174.73,373.032L1174.73,373.032ZM1174.74,372.994L1174.73,373.023L1174.74,372.994L1174.74,372.994ZM1174.75,372.955L1174.74,372.982L1174.75,372.955L1174.75,372.955ZM1174.76,372.916L1174.75,372.941L1174.76,372.916L1174.76,372.916ZM1174.77,372.877L1174.76,372.9L1174.77,372.877L1174.77,372.877ZM1174.78,372.838L1174.77,372.859L1174.78,372.838L1174.78,372.838ZM1174.79,372.799L1174.78,372.819L1174.79,372.799L1174.79,372.799ZM1174.8,372.76L1174.79,372.778L1174.8,372.76L1174.8,372.76ZM1174.8,372.721L1174.8,372.737L1174.8,372.721L1174.8,372.721ZM1174.81,372.681L1174.81,372.695L1174.81,372.681L1174.81,372.681ZM1156.16,367.17C1156.16,367.204 1156.16,367.239 1156.16,367.274C1156.16,367.225 1156.16,367.176 1156.16,367.128L1156.16,367.17ZM1156.19,366.625C1156.18,366.768 1156.17,366.912 1156.16,367.058C1156.17,366.912 1156.18,366.768 1156.19,366.625ZM1156.3,365.93C1156.29,365.956 1156.29,365.982 1156.28,366.008L1156.29,365.97L1156.3,365.93ZM1156.59,364.872C1156.59,364.889 1156.58,364.907 1156.58,364.924C1156.58,364.907 1156.59,364.889 1156.59,364.872ZM1156.75,364.473C1156.73,364.512 1156.72,364.552 1156.7,364.591C1156.72,364.552 1156.73,364.512 1156.75,364.473ZM1156.97,364.005C1156.93,364.09 1156.89,364.175 1156.85,364.262C1156.89,364.175 1156.93,364.09 1156.97,364.005ZM1157.19,363.609C1157.14,363.696 1157.09,363.784 1157.04,363.873C1157.09,363.784 1157.14,363.696 1157.19,363.609ZM1157.54,363.081C1157.5,363.131 1157.47,363.181 1157.43,363.231C1157.47,363.181 1157.5,363.131 1157.54,363.081ZM1157.77,362.771C1157.73,362.819 1157.7,362.868 1157.66,362.918L1157.68,362.886C1157.71,362.848 1157.74,362.809 1157.77,362.771ZM1157.91,362.609C1157.87,362.649 1157.84,362.69 1157.81,362.731L1157.83,362.7C1157.86,362.67 1157.88,362.639 1157.91,362.609ZM1158.2,362.285C1158.17,362.314 1158.14,362.343 1158.12,362.372L1158.14,362.343C1158.16,362.324 1158.18,362.304 1158.2,362.285ZM1158.34,362.144L1158.31,362.172L1158.34,362.144ZM1158.69,361.82C1158.65,361.854 1158.61,361.89 1158.57,361.925L1158.6,361.899C1158.64,361.863 1158.68,361.828 1158.72,361.794L1158.69,361.82ZM1158.99,361.567C1158.93,361.614 1158.87,361.661 1158.82,361.71C1158.86,361.67 1158.91,361.63 1158.96,361.591L1158.99,361.567ZM1159.18,361.423C1159.17,361.433 1159.16,361.443 1159.14,361.453L1159.15,361.446L1159.18,361.423ZM1159.35,361.307L1159.31,361.33L1159.35,361.307L1159.36,361.301L1159.35,361.307ZM1159.68,361.089C1159.65,361.11 1159.61,361.13 1159.58,361.151C1159.61,361.13 1159.65,361.11 1159.68,361.089ZM1160.39,360.707C1160.24,360.776 1160.1,360.849 1159.96,360.927L1159.99,360.908C1160.13,360.831 1160.28,360.758 1160.42,360.689L1160.39,360.707ZM1160.76,360.543C1160.67,360.578 1160.59,360.613 1160.51,360.651C1160.59,360.613 1160.67,360.578 1160.76,360.543ZM1161.02,360.441L1160.98,360.455C1161,360.448 1161.02,360.441 1161.04,360.434L1161.02,360.441ZM1161.37,360.323C1161.29,360.347 1161.21,360.373 1161.14,360.4L1161.18,360.386C1161.23,360.369 1161.28,360.352 1161.33,360.335L1161.37,360.323ZM1161.61,360.254C1161.58,360.262 1161.55,360.27 1161.52,360.278C1161.55,360.27 1161.58,360.262 1161.61,360.254ZM1156.32,365.809C1156.32,365.809 1156.32,365.809 1156.32,365.809ZM1157.23,363.541C1157.28,363.461 1157.33,363.383 1157.38,363.306C1157.32,363.394 1157.27,363.484 1157.21,363.575L1157.23,363.541ZM1157.96,362.549L1157.93,362.579L1157.96,362.549ZM1158.42,362.061C1158.4,362.079 1158.38,362.097 1158.37,362.116L1158.39,362.088L1158.42,362.061ZM1159.27,361.361C1159.25,361.374 1159.23,361.386 1159.21,361.399L1159.25,361.376L1159.27,361.361ZM1161.69,360.233C1161.67,360.236 1161.66,360.24 1161.65,360.243L1161.69,360.233C1161.7,360.229 1161.71,360.226 1161.73,360.222L1161.69,360.233Z"/>
    </g>
    <rect x="1053.99" y="359.957" width="76.589" height="10"/>
</svg>
